<?xml version="1.0" standalone="no"?>
<!DOCTYPE svg PUBLIC "-//W3C//DTD SVG 20010904//EN"
 "http://www.w3.org/TR/2001/REC-SVG-20010904/DTD/svg10.dtd">
<svg version="1.0" xmlns="http://www.w3.org/2000/svg"
 width="449.000000pt" height="449.000000pt" viewBox="0 0 449.000000 449.000000"
 preserveAspectRatio="xMidYMid meet">
<metadata>
Created by potrace 1.14, written by Peter Selinger 2001-2017
</metadata>
<g transform="translate(0.000000,449.000000) scale(0.100000,-0.100000)"
fill="#000000" stroke="none">
<path d="M1585 4291 c-179 -44 -355 -165 -508 -349 -64 -77 -177 -242 -177
-259 0 -5 15 -14 33 -21 32 -11 35 -10 81 33 129 119 222 121 786 12 267 -51
483 -42 618 27 123 63 338 267 442 421 l53 78 -23 17 c-22 16 -24 16 -72 -16
-113 -76 -232 -78 -553 -10 -423 90 -539 102 -680 67z"/>
<path d="M3579 4232 c-145 -82 -440 -311 -507 -393 -56 -69 -88 -138 -106
-231 -14 -67 -16 -224 -16 -1180 -1 -1132 -8 -1454 -35 -1568 -21 -87 -84
-214 -137 -276 -166 -195 -441 -314 -726 -314 -166 0 -289 28 -433 100 -152
75 -259 163 -299 245 -20 42 -28 145 -11 145 5 0 30 -10 57 -22 223 -99 456
135 406 407 -34 181 -153 296 -337 325 -171 27 -341 -50 -448 -203 -74 -105
-97 -180 -97 -308 0 -182 62 -328 202 -475 172 -179 390 -295 671 -356 87 -19
133 -22 312 -22 298 -1 498 34 730 124 229 90 465 258 591 422 107 138 157
272 174 468 6 70 10 626 10 1420 0 801 4 1346 10 1412 12 122 29 178 70 230
l30 37 -22 25 -23 25 -66 -37z"/>
<path d="M2635 3617 c-316 -167 -479 -299 -548 -444 -31 -65 -32 -75 -38 -233
-4 -91 -8 -424 -9 -740 -1 -316 -5 -773 -9 -1015 -8 -483 -10 -498 -72 -577
-23 -30 -28 -42 -20 -56 23 -44 35 -45 123 -16 210 69 332 138 430 242 72 77
117 155 149 262 l23 75 6 1160 c4 758 10 1173 17 1197 12 43 44 97 72 123 20
17 20 19 4 46 -10 16 -20 29 -23 29 -3 0 -50 -24 -105 -53z"/>
</g>
</svg>
